<?xml version="1.0" encoding="utf-8"?>
<svg viewBox="0 0 1024 1024" xmlns="http://www.w3.org/2000/svg" xmlns:xlink="http://www.w3.org/1999/xlink">
  <defs>
    <filter id="shadow">
      <feDropShadow style="flood-opacity: 0.3;" stdDeviation="10" dx="0" dy="10"/>
    </filter>
    <clipPath id="icon-mask">
      <path d="M 100 724 L 100 300 C 100 185.001 170 100 300 100 L 724 100 C 854 100 924 185 924 300 L 924 724 C 924 839 854 924 724 924 L 300 924 C 170 924 100 839 100 724 Z"></path>
    </clipPath>
  </defs>
  <g style="filter: url(#shadow);">
    <g style="clip-path: url(#icon-mask);">
      <rect fill="#FFFFFF" width="1024" height="1024"></rect>
      <g
         transform="matrix(27.727042,0,0,27.727042,141.98955,279.842)"
         style="fill:#0b0000;fill-opacity:1">
        <path
           d="m 13.3496,16.748 c 7.8906,0 13.3399,-6.3769 13.3399,-8.36909 0,-2.00196 -5.459,-8.36914438 -13.3399,-8.36914438 C 5.56641,0.00976562 0,6.37695 0,8.37891 0,10.3711 5.55664,16.748 13.3496,16.748 Z m 0,-1.5429 c -6.43554,0 -11.64062,-5.44924 -11.64062,-6.82619 0,-1.16211 5.20508,-6.82618 11.64062,-6.82618 6.4063,0 11.6309,5.66407 11.6309,6.82618 0,1.37695 -5.2246,6.82619 -11.6309,6.82619 z m 0,-1.3574 c 3.0371,0 5.4785,-2.4903 5.4785,-5.46879 0,-3.05664 -2.4414,-5.46875 -5.4785,-5.46875 -3.0566,0 -5.5078,2.41211 -5.49804,5.46875 0.01953,2.97849 2.44144,5.46879 5.49804,5.46879 z"
           fill="#ffffff"
           fill-opacity="0.85"
           id="path1023"
           style="fill:#261d17;fill-opacity:1"
           />
      </g>
      <g
         transform="matrix(10.272592,0,0,10.272592,394.73417,400.88081)"
         style="fill:#08a2f3;fill-opacity:1">
        <path
           d="m 0,12.4219 c 1.64062,2.6758 5.92773,6.7969 11.6992,6.7969 3.6817,0 4.6875,-1.709 6.8262,-1.709 1.7773,0 2.4805,1.1914 2.7539,1.6601 0.0781,0.1465 0.2051,0.2442 0.293,-0.039 0.0488,-0.2051 0.0976,-0.4786 0.0976,-0.8106 0,-0.9375 -0.2832,-2.7246 -1.8457,-4.6875 0.3418,-0.9668 0.3809,-2.0312 0.3809,-2.6562 0,-2.84183 -1.6016,-7.78324 -6.9043,-10.9766 1.1035,1.5625 2.5879,3.92578 2.5879,7.2168 0,1.1914 -0.3321,2.5 -0.5957,3.1543 C 12.4121,8.70117 6.9043,4.11133 4.69727,1.76758 6.46484,4.48242 8.56445,6.94336 10.8887,9.52148 7.76367,7.54883 4.85352,5.33203 2.13867,2.90039 4.73633,6.67969 8.02734,10.4004 12.3633,13.9062 11.123,14.5898 9.84375,15.1367 7.66602,15.1367 5.00977,15.1367 1.76758,13.8477 0,12.4219 Z"
           fill="#ffffff"
           fill-opacity="0.85"
           id="path1029"
           style="fill:#08a2f3;fill-opacity:1" />
      </g>
    </g>
  </g>
</svg>
